# xmcd CD database file
#
# Track frame offsets:
#	150
#	24401
#	44677
#	80740
#	101051
#	124389
#	151751
#	176084
#	207626
#	228948
#	262542
#	269846
#
# Disc length: 3798 seconds
#
# Revision: 0
# Processed by: cddbd v1.5.1PL0 Copyright (c) Steve Scherf et al.
# Submitted via: CDex 1.51
#
DISCID=a80ed40c
DTITLE=Various_Artists - Cafe Blue
DYEAR=1900
DGENRE=Jazz
TTITLE0=What A shame
TTITLE1=Ode to Billy Joe
TTITLE2=A Taste Of Honey
TTITLE3=Too Rich For My Blood
TTITLE4=Romanesque
TTITLE5=Yellow Car III
TTITLE6=Wood Is A Pleasant Thing To Think About
TTITLE7=Inch Worm
TTITLE8=Morning Grace
TTITLE9=The Thrill Is Gone
TTITLE10=Nardls
TTITLE11=Manha de Carnaval
EXTD=
EXTT0=
EXTT1=
EXTT2=
EXTT3=
EXTT4=
EXTT5=
EXTT6=
EXTT7=
EXTT8=
EXTT9=
EXTT10=
EXTT11=
PLAYORDER=
